<?xml version="1.0" standalone="no"?>
<!DOCTYPE svg PUBLIC "-//W3C//DTD SVG 20010904//EN"
 "http://www.w3.org/TR/2001/REC-SVG-20010904/DTD/svg10.dtd">
<svg version="1.0" xmlns="http://www.w3.org/2000/svg"
 width="1366.000000pt" height="768.000000pt" viewBox="0 0 1366.000000 768.000000"
 preserveAspectRatio="xMidYMid meet">
<metadata>
Created by potrace 1.15, written by Peter Selinger 2001-2017
</metadata>
<g transform="translate(0.000000,768.000000) scale(0.100000,-0.100000)"
fill="#000000" stroke="none">
<path d="M875 5068 c-3 -7 -4 -510 -3 -1118 l3 -1105 50 0 50 0 0 1115 0 1115
-48 3 c-32 2 -49 -1 -52 -10z"/>
<path d="M10757 4962 c-21 -23 -22 -81 -3 -108 20 -27 102 -27 122 0 20 28 18
89 -4 109 -26 23 -94 22 -115 -1z"/>
<path d="M1660 4511 c-14 -27 -13 -66 3 -79 7 -6 163 -12 427 -14 l415 -4 80
-27 c186 -63 327 -200 384 -376 12 -35 21 -70 21 -78 0 -11 -99 -13 -558 -13
-482 0 -566 -2 -613 -16 -181 -53 -319 -191 -373 -373 -21 -72 -21 -230 0
-302 52 -177 196 -321 373 -373 45 -13 111 -16 375 -16 365 0 398 5 536 72
120 59 248 187 308 308 67 135 72 168 72 465 0 289 -5 327 -64 450 -87 182
-252 321 -446 374 -70 20 -101 21 -502 21 -412 0 -428 -1 -438 -19z m1337
-883 c-6 -203 -16 -249 -75 -363 -48 -92 -145 -189 -237 -237 -124 -64 -154
-70 -420 -75 -281 -6 -388 4 -472 43 -80 38 -163 120 -204 202 -33 64 -34 71
-34 182 0 111 1 117 34 183 62 124 193 219 324 236 34 5 293 9 576 10 l514 1
-6 -182z"/>
<path d="M4040 4515 c-30 -8 -93 -34 -140 -57 -68 -33 -102 -59 -171 -127 -71
-72 -94 -102 -132 -181 -79 -159 -77 -145 -77 -751 0 -595 -4 -563 67 -557
l38 3 5 540 c6 520 7 542 28 605 64 192 217 343 407 402 94 30 337 32 430 4
203 -60 354 -210 421 -416 16 -49 18 -115 23 -595 l6 -540 41 -3 c25 -2 45 2
52 10 7 9 12 177 14 538 4 460 6 532 21 584 62 211 233 378 437 427 84 20 330
17 405 -5 203 -60 354 -209 421 -416 16 -49 18 -111 22 -585 2 -361 7 -534 14
-543 7 -8 27 -12 52 -10 l41 3 3 544 c3 616 4 601 -74 760 -85 172 -243 305
-428 358 -69 20 -100 23 -260 23 -203 0 -256 -9 -371 -64 -130 -62 -235 -157
-310 -281 l-33 -55 -38 67 c-78 134 -205 238 -366 299 -70 27 -81 28 -283 31
-161 2 -223 -1 -265 -12z"/>
<path d="M7330 4515 c-186 -50 -357 -193 -444 -369 -69 -142 -66 -89 -64
-1153 l3 -958 50 0 50 0 5 543 5 543 65 -67 c84 -86 188 -154 281 -185 71 -23
84 -24 369 -24 l295 0 73 27 c108 39 177 84 262 168 82 82 128 153 169 258
l26 67 0 315 c0 304 -1 317 -23 380 -73 204 -238 369 -442 442 -61 22 -81 23
-345 25 -220 2 -292 -1 -335 -12z m610 -120 c156 -48 286 -153 357 -291 62
-121 68 -157 68 -419 0 -262 -6 -298 -68 -419 -72 -139 -201 -244 -362 -292
-50 -16 -97 -19 -280 -19 -157 0 -236 4 -275 14 -205 53 -366 206 -427 406
-15 51 -18 97 -18 300 0 273 5 307 68 429 86 166 253 283 442 307 105 13 433
3 495 -16z"/>
<path d="M9420 4507 c-181 -54 -338 -186 -423 -357 -78 -158 -77 -144 -77
-751 0 -595 -4 -563 67 -557 l38 3 5 540 c6 520 7 542 28 605 64 192 216 343
407 403 61 19 93 21 250 22 117 0 199 -5 235 -14 78 -19 186 -73 250 -126 65
-54 113 -61 131 -21 7 14 9 36 5 49 -8 33 -115 119 -201 162 -114 56 -171 65
-420 64 -197 0 -228 -2 -295 -22z"/>
<path d="M11910 4515 c-30 -8 -93 -34 -140 -56 -69 -34 -101 -58 -171 -128
-71 -72 -94 -104 -133 -182 -77 -158 -76 -144 -76 -750 0 -595 -4 -563 67
-557 l38 3 6 540 c6 598 4 579 75 715 93 177 259 288 467 312 126 14 416 4
487 -17 153 -47 293 -158 362 -290 73 -141 71 -120 77 -720 l6 -540 38 -3 c71
-6 67 -39 67 562 0 607 1 597 -72 746 -33 67 -58 101 -127 170 -95 94 -162
138 -273 178 -72 27 -76 27 -358 29 -224 2 -297 -1 -340 -12z"/>
<path d="M10782 4510 l-22 -9 2 -828 3 -828 50 0 50 0 3 825 c2 767 1 826 -15
838 -19 14 -39 14 -71 2z"/>
</g>
</svg>
