<?xml version="1.0" standalone="no"?>
<!DOCTYPE svg PUBLIC "-//W3C//DTD SVG 20010904//EN"
 "http://www.w3.org/TR/2001/REC-SVG-20010904/DTD/svg10.dtd">
<svg version="1.0" xmlns="http://www.w3.org/2000/svg"
 width="1679.000000pt" height="1679.000000pt" viewBox="0 0 1679.000000 1679.000000"
 preserveAspectRatio="xMidYMid meet">
<metadata>
Created by potrace 1.15, written by Peter Selinger 2001-2017
</metadata>
<g transform="translate(0.000000,1679.000000) scale(0.100000,-0.100000)"
fill="#000000" stroke="none">
<path d="M0 8395 l0 -8395 8395 0 8395 0 0 8395 0 8395 -8395 0 -8395 0 0
-8395z m5188 1189 c20 -8 47 -25 59 -36 l23 -22 -22 -23 c-19 -20 -23 -21 -38
-8 -46 41 -142 56 -205 32 -45 -17 -69 -37 -99 -81 -21 -31 -26 -51 -26 -98 0
-74 18 -116 65 -156 77 -63 192 -63 261 -1 20 19 21 19 44 -6 19 -21 21 -27
10 -40 -50 -60 -207 -84 -298 -45 -227 98 -203 429 35 496 55 16 138 11 191
-12z m5579 1 c21 -9 48 -26 60 -37 l23 -22 -21 -22 -21 -23 -40 26 c-46 31
-128 41 -183 23 -160 -53 -184 -271 -39 -356 53 -31 137 -38 192 -15 l32 13 0
89 0 89 40 0 40 0 0 -98 c0 -109 -2 -113 -70 -147 -50 -26 -165 -31 -227 -11
-106 35 -173 129 -173 241 0 100 31 164 106 221 69 53 192 66 281 29z m1671
-1 c20 -8 47 -25 59 -36 l23 -22 -22 -23 c-19 -20 -23 -21 -38 -8 -46 41 -142
56 -205 32 -45 -17 -69 -37 -99 -81 -21 -31 -26 -51 -26 -98 0 -74 18 -116 65
-156 77 -63 192 -63 261 -1 20 19 21 19 44 -6 19 -21 21 -27 10 -40 -50 -60
-207 -84 -298 -45 -227 98 -203 429 35 496 55 16 138 11 191 -12z m-8673 -136
c49 -84 97 -166 106 -181 l17 -28 103 180 c101 176 105 181 137 181 l32 0 0
-260 0 -260 -35 0 -35 0 -2 187 -3 188 -90 -155 c-64 -110 -96 -155 -109 -155
-13 0 -43 43 -104 148 l-87 147 -3 -180 -2 -180 -40 0 -40 0 0 260 0 260 33 0
c32 0 36 -5 122 -152z m891 -102 c63 -137 114 -253 114 -258 0 -4 -16 -8 -35
-8 -33 0 -36 3 -64 65 l-30 65 -136 0 -136 0 -30 -65 c-28 -62 -31 -65 -65
-65 -44 0 -50 -20 77 256 56 121 105 229 110 242 7 19 15 23 45 20 l36 -3 114
-249z m804 144 l0 -110 145 0 145 0 0 110 0 110 35 0 35 0 0 -260 0 -260 -35
0 -35 0 0 115 0 115 -145 0 -145 0 0 -115 0 -115 -40 0 -40 0 0 260 0 260 40
0 40 0 0 -110z m600 -150 l0 -260 -35 0 -35 0 0 260 0 260 35 0 35 0 0 -260z
m373 69 l152 -192 3 192 2 191 35 0 35 0 0 -260 0 -260 -29 0 c-26 0 -46 21
-177 189 -82 105 -152 190 -156 190 -5 1 -8 -84 -8 -189 l0 -190 -35 0 -35 0
0 260 0 260 30 0 c27 0 45 -19 183 -191z m757 161 l0 -30 -145 0 -145 0 0 -80
0 -80 130 0 130 0 0 -35 0 -35 -130 0 -130 0 0 -80 0 -80 150 0 150 0 0 -35 0
-35 -190 0 -190 0 0 260 0 260 185 0 185 0 0 -30z m410 -230 l0 -260 -35 0
-35 0 0 260 0 260 35 0 35 0 0 -260z m382 68 l153 -193 3 193 2 192 35 0 35 0
0 -260 0 -260 -30 0 c-27 0 -45 20 -182 192 l-153 193 -3 -193 -2 -192 -35 0
-35 0 0 260 0 260 29 0 c26 0 46 -21 183 -192z m738 162 l0 -30 -90 0 -90 0 0
-230 0 -230 -35 0 -35 0 0 230 0 230 -90 0 -90 0 0 30 0 30 215 0 215 0 0 -30z
m450 0 l0 -30 -150 0 -150 0 0 -80 0 -80 130 0 130 0 0 -35 0 -35 -130 0 -130
0 0 -80 0 -79 153 -3 152 -3 3 -32 3 -33 -190 0 -191 0 0 260 0 260 185 0 185
0 0 -30z m200 -195 l0 -224 143 -3 142 -3 3 -32 3 -33 -180 0 -181 0 0 260 0
260 35 0 35 0 0 -225z m450 0 l0 -225 140 0 140 0 0 -35 0 -35 -180 0 -180 0
0 260 0 260 40 0 40 0 0 -225z m440 -35 l0 -260 -35 0 -35 0 0 260 0 260 35 0
35 0 0 -260z m1100 230 l0 -30 -145 0 -145 0 0 -80 0 -80 130 0 130 0 0 -35 0
-35 -130 0 -130 0 0 -80 0 -80 150 0 150 0 0 -35 0 -35 -190 0 -190 0 0 260 0
260 185 0 185 0 0 -30z m348 -162 l152 -191 0 191 0 192 40 0 40 0 0 -260 0
-260 -32 0 c-31 1 -44 15 -183 192 l-150 190 -3 -191 -2 -191 -40 0 -40 0 0
260 0 260 33 0 c32 0 43 -12 185 -192z m1292 162 l0 -30 -145 0 -145 0 0 -80
0 -80 131 0 130 0 -3 -32 -3 -33 -127 -3 -128 -3 0 -79 0 -80 150 0 150 0 0
-35 0 -35 -190 0 -190 0 0 260 0 260 185 0 185 0 0 -30z m-8528 -1535 l3 -96
57 51 c31 27 66 50 77 50 17 0 13 -7 -24 -41 l-45 -41 51 -64 c42 -54 47 -64
31 -64 -12 0 -37 21 -62 50 -41 49 -42 50 -65 32 -17 -12 -24 -27 -25 -49 0
-23 -5 -33 -15 -33 -13 0 -15 23 -15 150 0 125 2 150 15 150 11 0 15 -20 17
-95z m7278 40 c0 -51 10 -69 25 -45 3 6 27 10 51 10 37 0 51 -6 75 -29 38 -38
41 -106 6 -146 -29 -34 -96 -45 -132 -21 -22 14 -25 15 -25 1 0 -8 -7 -15 -15
-15 -13 0 -15 23 -15 150 0 127 2 150 15 150 12 0 15 -13 15 -55z m-7831 -60
c30 -52 58 -95 61 -95 3 0 31 43 61 95 75 132 84 127 84 -45 0 -119 -2 -135
-17 -138 -15 -3 -18 9 -20 98 l-3 102 -46 -79 c-25 -43 -52 -78 -59 -78 -8 0
-35 35 -60 78 -24 42 -47 77 -50 77 -3 0 -5 -44 -5 -97 0 -80 -3 -98 -15 -98
-12 0 -15 23 -18 138 -2 126 -1 137 15 137 12 0 36 -32 72 -95z m427 4 c23
-25 34 -163 15 -182 -9 -9 -14 -9 -20 2 -7 10 -13 10 -29 2 -52 -28 -122 -1
-122 46 0 44 26 63 87 63 49 0 53 2 53 24 0 36 -46 52 -93 32 -26 -11 -37 -11
-40 -3 -13 37 117 51 149 16z m464 11 c0 -7 6 -7 19 0 11 5 38 10 60 10 70 0
96 -46 89 -155 -2 -36 -7 -50 -18 -50 -12 0 -16 17 -18 78 -3 68 -6 79 -26 93
-29 19 -71 10 -91 -19 -10 -14 -15 -46 -15 -89 0 -54 -3 -68 -15 -68 -12 0
-15 18 -15 105 0 87 3 105 15 105 8 0 15 -5 15 -10z m381 0 c13 -7 19 -7 19 0
0 5 7 10 15 10 13 0 15 -20 15 -120 0 -135 -8 -153 -73 -165 -36 -7 -112 9
-122 25 -13 21 7 30 35 15 62 -32 130 -6 130 51 0 24 -1 24 -22 10 -66 -46
-158 4 -158 85 0 61 37 99 98 99 24 0 52 -5 63 -10z m259 -58 c0 -81 17 -112
61 -112 50 0 69 30 69 110 0 56 3 70 15 70 12 0 15 -18 15 -105 0 -87 -3 -105
-15 -105 -8 0 -15 5 -15 10 0 7 -6 7 -19 0 -36 -19 -90 -12 -116 15 -22 22
-25 32 -25 105 0 64 3 80 15 80 12 0 15 -14 15 -68z m370 58 c28 -17 -2 -32
-39 -19 -37 13 -81 -1 -81 -25 0 -19 23 -31 73 -40 67 -12 84 -76 27 -106 -45
-24 -149 -1 -131 29 7 10 13 11 30 1 12 -6 39 -10 59 -8 29 2 38 8 40 25 3 22
-2 25 -66 38 -59 12 -80 58 -45 97 18 20 106 25 133 8z m297 -5 c8 -23 0 -26
-36 -14 -37 13 -81 -1 -81 -25 0 -18 22 -31 69 -40 46 -8 61 -23 61 -57 0 -42
-37 -63 -101 -57 -52 5 -76 19 -65 37 5 8 13 8 26 1 24 -13 80 -13 100 0 23
15 0 43 -44 52 -59 12 -76 25 -76 58 0 44 23 60 86 60 40 0 56 -4 61 -15z
m225 -12 c42 -44 41 -111 -1 -154 -34 -33 -83 -39 -130 -14 -58 29 -67 128
-16 173 39 34 113 31 147 -5z m559 -2 c17 -17 29 -40 29 -55 0 -26 0 -26 -85
-26 -93 0 -106 -10 -63 -50 24 -22 68 -26 100 -9 33 18 45 -6 14 -26 -39 -26
-113 -15 -143 20 -33 38 -32 112 2 149 19 21 33 26 70 26 38 0 52 -5 76 -29z
m316 14 c8 -23 0 -26 -36 -14 -37 13 -81 -1 -81 -25 0 -18 22 -31 69 -40 46
-8 61 -23 61 -57 0 -42 -37 -63 -101 -57 -52 5 -76 19 -65 37 5 8 13 8 26 1
24 -13 80 -13 100 0 23 15 0 43 -44 52 -59 12 -76 25 -76 58 0 44 23 60 86 60
40 0 56 -4 61 -15z m203 5 c0 -7 6 -7 19 0 30 15 92 12 113 -7 17 -15 19 -15
36 0 21 19 83 22 112 7 24 -13 40 -69 40 -142 0 -51 -2 -58 -20 -58 -17 0 -19
8 -22 82 -3 78 -5 83 -30 97 -25 14 -29 14 -55 -5 -26 -19 -28 -27 -31 -98 -2
-59 -6 -76 -17 -76 -12 0 -15 15 -15 70 0 62 -3 74 -25 95 -13 14 -31 25 -40
25 -9 0 -27 -11 -40 -25 -22 -21 -25 -33 -25 -95 0 -56 -3 -70 -15 -70 -12 0
-15 18 -15 105 0 87 3 105 15 105 8 0 15 -5 15 -10z m420 0 c0 -7 6 -7 19 0
11 5 38 10 61 10 33 0 48 -6 71 -29 65 -65 21 -181 -68 -181 -21 0 -48 7 -60
15 -22 15 -22 15 -25 -37 -2 -30 -8 -53 -15 -56 -10 -3 -13 30 -13 142 0 123
2 146 15 146 8 0 15 -5 15 -10z m481 0 c21 -12 49 -60 49 -85 0 -12 -15 -15
-85 -15 -78 0 -85 -2 -85 -19 0 -42 76 -66 120 -39 15 9 22 10 31 1 16 -16
-38 -43 -85 -43 -97 0 -142 140 -62 195 24 17 89 20 117 5z m238 -72 l38 -83
27 60 c15 33 32 70 37 83 7 19 39 33 39 17 0 -3 -25 -62 -56 -131 -62 -136
-83 -160 -134 -149 -44 10 -41 38 4 30 29 -6 37 -3 51 18 15 24 14 29 -30 127
-25 56 -45 104 -45 106 0 2 7 4 15 4 9 0 30 -32 54 -82z m312 72 c21 -12 49
-60 49 -85 0 -12 -15 -15 -85 -15 -78 0 -85 -2 -85 -19 0 -42 76 -66 120 -39
15 9 22 10 31 1 16 -16 -38 -43 -85 -43 -97 0 -142 140 -62 195 24 17 89 20
117 5z m744 -12 c51 -45 42 -144 -16 -173 -47 -25 -96 -19 -130 14 -24 25 -29
38 -29 79 0 40 5 54 26 76 36 35 110 37 149 4z m118 10 c4 -10 7 -10 18 0 18
16 91 15 114 -2 17 -12 22 -12 39 0 11 8 39 14 62 14 65 0 84 -30 84 -131 0
-64 -3 -79 -15 -79 -12 0 -15 15 -15 73 0 78 -4 88 -37 106 -30 15 -71 -1 -83
-34 -6 -15 -10 -53 -10 -86 0 -46 -3 -59 -15 -59 -12 0 -15 14 -15 69 0 38 -3
77 -6 86 -10 25 -50 37 -79 23 -29 -13 -34 -28 -37 -113 -2 -48 -7 -60 -20
-63 -16 -3 -18 7 -18 102 0 85 3 106 14 106 8 0 16 -6 19 -12z m417 -4 c0 -14
2 -14 22 0 28 20 97 21 125 1 27 -19 46 -77 38 -115 -4 -16 -21 -41 -38 -56
-26 -22 -38 -25 -72 -21 -22 3 -47 8 -55 11 -12 5 -15 -3 -15 -41 0 -36 -4
-48 -15 -48 -13 0 -15 24 -18 143 -2 122 0 142 13 142 8 0 15 -7 15 -16z m504
-15 c14 -17 26 -41 26 -55 0 -24 -2 -24 -85 -24 -92 0 -101 -7 -63 -47 23 -25
66 -30 100 -12 33 18 45 -6 14 -26 -39 -26 -113 -15 -143 20 -33 38 -32 103 3
144 22 27 32 31 74 31 42 0 52 -4 74 -31z m96 24 c0 -5 12 -21 26 -37 l25 -29
30 37 c17 20 37 36 45 36 21 0 18 -7 -22 -56 l-36 -44 42 -52 c35 -45 39 -54
24 -57 -10 -2 -24 5 -32 15 -56 76 -50 71 -65 49 -37 -51 -54 -67 -70 -64 -13
3 -9 14 24 56 l41 52 -29 38 c-45 57 -47 63 -24 63 12 0 21 -3 21 -7z m330 -3
c0 -7 6 -7 19 0 11 5 38 10 61 10 60 0 100 -41 100 -104 0 -60 -30 -95 -87
-103 -30 -4 -50 -1 -67 11 l-25 16 -3 -52 c-2 -30 -8 -53 -15 -56 -10 -3 -13
30 -13 142 0 123 2 146 15 146 8 0 15 -5 15 -10z m551 -19 c39 -39 41 -106 5
-148 -21 -25 -31 -28 -81 -28 -50 0 -60 3 -81 28 -36 42 -34 109 5 148 24 24
38 29 76 29 38 0 52 -5 76 -29z m600 19 c21 -12 49 -60 49 -85 0 -12 -15 -15
-85 -15 -78 0 -85 -2 -85 -19 0 -11 10 -27 22 -35 25 -18 84 -21 93 -6 9 15
35 12 35 -3 0 -18 -43 -37 -85 -37 -96 0 -140 140 -61 195 24 17 89 20 117 5z
m129 0 c0 -7 6 -7 19 0 29 15 92 12 112 -6 16 -15 20 -15 41 0 12 9 41 16 64
16 63 0 81 -27 83 -130 2 -66 -1 -80 -13 -80 -13 0 -16 13 -16 70 0 62 -3 74
-25 95 -13 14 -31 25 -40 25 -9 0 -27 -11 -40 -25 -22 -21 -25 -33 -25 -95 0
-56 -3 -70 -15 -70 -12 0 -15 15 -15 73 0 78 -4 88 -37 106 -27 14 -67 0 -82
-28 -6 -11 -11 -49 -11 -85 0 -52 -3 -66 -15 -66 -12 0 -15 18 -15 105 0 87 3
105 15 105 8 0 15 -5 15 -10z m520 0 c27 -17 -2 -31 -37 -18 -24 9 -38 9 -57
0 -50 -22 -28 -53 47 -66 67 -12 84 -76 27 -106 -45 -24 -149 -1 -131 29 7 10
13 11 30 1 12 -6 39 -10 59 -8 29 2 38 8 40 25 3 22 -2 25 -66 38 -59 12 -80
58 -45 97 18 20 106 25 133 8z"/>
<path d="M4477 9453 c-15 -33 -38 -85 -52 -116 l-25 -57 105 0 104 0 -20 48
c-11 26 -35 78 -52 116 l-33 70 -27 -61z"/>
<path d="M11793 8010 c-72 -29 -46 -150 32 -150 54 0 90 60 69 115 -6 15 -54
46 -71 44 -4 0 -18 -4 -30 -9z"/>
<path d="M5103 8010 c-46 -19 -57 -83 -20 -118 50 -47 127 -15 127 51 0 53
-56 88 -107 67z"/>
<path d="M6220 7992 c-37 -37 -39 -74 -5 -107 49 -50 125 -18 125 51 0 38 -25
71 -62 80 -22 5 -33 0 -58 -24z"/>
<path d="M7885 8008 c-49 -28 -59 -78 -24 -122 54 -68 155 4 123 89 -6 15 -54
45 -71 45 -4 0 -17 -6 -28 -12z"/>
<path d="M9513 8010 c-45 -18 -58 -90 -23 -128 28 -30 74 -29 105 3 33 33 32
70 -4 106 -31 31 -42 33 -78 19z"/>
<path d="M10205 8010 c-44 -17 -61 -73 -37 -117 25 -46 102 -42 127 7 33 63
-27 136 -90 110z"/>
<path d="M11125 8008 c-49 -26 -59 -77 -24 -122 54 -68 155 4 123 89 -6 15
-54 45 -71 45 -4 0 -17 -6 -28 -12z"/>
<path d="M11525 8008 c-49 -26 -59 -77 -24 -122 54 -68 155 4 123 89 -6 15
-54 45 -71 45 -4 0 -17 -6 -28 -12z"/>
</g>
</svg>
